<?xml version="1.0" encoding="UTF-8" standalone="no"?>
<!DOCTYPE svg PUBLIC "-//W3C//DTD SVG 1.1//EN" "http://www.w3.org/Graphics/SVG/1.1/DTD/svg11.dtd">
<svg width="100%" height="100%" viewBox="0 0 2048 2048" version="1.1" xmlns="http://www.w3.org/2000/svg" xmlns:xlink="http://www.w3.org/1999/xlink" xml:space="preserve" xmlns:serif="http://www.serif.com/" style="fill-rule:evenodd;clip-rule:evenodd;stroke-linecap:round;stroke-linejoin:round;stroke-miterlimit:1.5;">
    <g id="レイヤー1">
        <path d="M1729.42,666.415C1724.5,464.616 1595.6,358.468 1512.29,304.001C1369.92,210.915 717.471,183.286 536.627,314.63C424.241,396.253 301.909,544.642 302.073,682.192C302.407,961.759 310.625,1892.29 310.625,1892.29C310.625,1892.29 645.722,1755.77 642.094,1757C638.465,1758.24 637.345,885.967 641.715,672.839C643.298,595.649 707.226,487.32 784.164,450.039C892.406,397.589 1199.09,399.795 1296.57,451.18C1376.65,493.398 1423.26,612.401 1423.81,669.6C1426.04,896.602 1426.62,1809.42 1426.62,1809.42L1162.44,1811.04L1158.64,938.32L989.791,940.456L817.5,1030.67L817.813,1973.38L1712.79,1961.2C1712.79,1961.2 1736.39,951.917 1729.42,666.415Z" style="stroke:black;stroke-width:1px;"/>
    </g>
</svg>
