<?xml version="1.0" encoding="UTF-8" standalone="no"?>
<!DOCTYPE svg PUBLIC "-//W3C//DTD SVG 1.1//EN" "http://www.w3.org/Graphics/SVG/1.1/DTD/svg11.dtd">
<svg width="100%" height="100%" viewBox="0 0 2048 2048" version="1.1" xmlns="http://www.w3.org/2000/svg" xmlns:xlink="http://www.w3.org/1999/xlink" xml:space="preserve" xmlns:serif="http://www.serif.com/" style="fill-rule:evenodd;clip-rule:evenodd;stroke-linecap:round;stroke-linejoin:round;stroke-miterlimit:1.5;">
    <g id="レイヤー1">
        <path d="M555.438,82.625L235.687,304.875L233.822,358.892L311.125,358.583L314.687,1918.83L412.25,1919.44L851.344,1371.07L851.708,1647.3L941.736,1645.54L1217.06,1393.92L1218.95,913.658L1440.71,640.885L1433.28,1805.33L1145.53,1808.92L1027.03,1734.21L690.219,1971.25L1495.69,1965.88L1760.94,1741.31L1764.63,223.038L1637.78,99.699L1222.1,627.653L1217.07,478.826L797.01,726.502L795.063,798.5L847.957,799.189L848.471,1085.64L646.726,1350.25L668.906,82.292L555.438,82.625Z" style="stroke:black;stroke-width:1px;"/>
    </g>
</svg>
