<?xml version="1.0" encoding="UTF-8" standalone="no"?>
<!DOCTYPE svg PUBLIC "-//W3C//DTD SVG 1.1//EN" "http://www.w3.org/Graphics/SVG/1.1/DTD/svg11.dtd">
<svg width="100%" height="100%" viewBox="0 0 2048 2048" version="1.1" xmlns="http://www.w3.org/2000/svg" xmlns:xlink="http://www.w3.org/1999/xlink" xml:space="preserve" xmlns:serif="http://www.serif.com/" style="fill-rule:evenodd;clip-rule:evenodd;stroke-linecap:round;stroke-linejoin:round;stroke-miterlimit:1.5;">
    <g transform="matrix(1.28,0,0,1.28,0,0)">
        <path d="M962.402,94.954L953.647,769.795C953.647,769.795 838.725,820.842 789.588,840.829C748.349,857.603 658.827,889.717 658.827,889.717L639.283,564.625L437.536,1125.57C437.536,1125.57 566.114,1021.53 605.088,1007.41C645.558,992.737 698.531,973.652 739.771,1002.12C809.155,1050.01 948.865,1247.66 1008.09,1296.57C1030.46,1315.04 1077.23,1301.3 1095.12,1295.57C1107.75,1291.53 1112.74,1273.35 1113.13,1260.09C1118.11,1094.05 1124.99,299.345 1124.99,299.345L1071.39,325.929C1071.39,325.929 1066.69,233.153 1081.62,208.062C1096.24,183.485 1135.86,189.125 1160.94,175.383C1190.91,158.964 1225.96,122.295 1261.4,109.547C1296.76,96.831 1373.61,98.893 1373.61,98.893L1390.13,1148.26C1390.13,1148.26 1043.39,1486.11 953.205,1554.37C925.086,1575.66 876.323,1581.6 848.084,1559.97C778.812,1506.91 598.745,1290.13 537.573,1236.04C523.459,1223.56 495.471,1223.29 481.055,1235.42C429.834,1278.52 284.119,1453.51 230.249,1494.63C210.781,1509.49 171.322,1501.45 157.837,1482.16C144.352,1462.87 136.635,1411 149.341,1378.87C219.722,1200.92 502.978,598.909 580.127,414.453C598.892,369.588 613.022,269.782 613.022,269.782L841.835,147.599L962.402,94.954Z" style="stroke:black;stroke-width:1px;"/>
    </g>
</svg>
