<?xml version="1.0" encoding="UTF-8" standalone="no"?>
<!DOCTYPE svg PUBLIC "-//W3C//DTD SVG 1.1//EN" "http://www.w3.org/Graphics/SVG/1.1/DTD/svg11.dtd">
<svg width="100%" height="100%" viewBox="0 0 2048 2048" version="1.1" xmlns="http://www.w3.org/2000/svg" xmlns:xlink="http://www.w3.org/1999/xlink" xml:space="preserve" xmlns:serif="http://www.serif.com/" style="fill-rule:evenodd;clip-rule:evenodd;stroke-linecap:round;stroke-linejoin:round;stroke-miterlimit:1.5;">
    <g id="レイヤー1">
        <path d="M1077.06,62.927C1305.78,54.053 1446.47,319.079 1448.67,500.913C1451.83,762.332 1446.02,1285.53 1436.3,1534.52C1429.71,1703.36 1280.23,1945.66 1077.88,1946.36C890.841,1947.02 711.773,1712.77 709.502,1532.53C706.292,1277.85 704.142,811.508 709.777,513.078C713.247,329.295 867.101,71.073 1077.06,62.927ZM1078.53,256.284C1236.34,254.865 1280.4,415.833 1283.21,533.642C1288.51,755.866 1282.26,1310.06 1279.09,1509.89C1277.23,1627.49 1255.82,1782.48 1082.33,1779.27C920.484,1776.28 872.53,1625.4 870.781,1507.83C867.653,1297.56 882.279,746.013 885.005,533.854C886.48,419.098 928.56,257.633 1078.53,256.284Z" style="stroke:black;stroke-width:1px;"/>
    </g>
</svg>
