<?xml version="1.0" encoding="UTF-8" standalone="no"?>
<!DOCTYPE svg PUBLIC "-//W3C//DTD SVG 1.1//EN" "http://www.w3.org/Graphics/SVG/1.1/DTD/svg11.dtd">
<svg width="100%" height="100%" viewBox="0 0 2048 2048" version="1.1" xmlns="http://www.w3.org/2000/svg" xmlns:xlink="http://www.w3.org/1999/xlink" xml:space="preserve" xmlns:serif="http://www.serif.com/" style="fill-rule:evenodd;clip-rule:evenodd;stroke-linecap:round;stroke-linejoin:round;stroke-miterlimit:1.5;">
    <path d="M323.312,706.208C323.312,706.208 438.749,148.081 1044.59,161.583C1594.91,173.848 1869.58,651.681 1878.6,1019.92C1886.66,1348.98 1564.55,1907.67 1099.43,1899.4C231.703,1883.97 258.732,996.09 258.732,996.09L1458.97,1074.5C1458.97,1074.5 1418.3,399.369 968.989,365.274C743.029,348.127 604.531,710.917 604.531,710.917L323.312,706.208ZM1467.12,1188.43C1467.12,1188.43 1538.66,1764.48 1106.69,1726.08C695.448,1689.53 587.813,1134.46 587.813,1134.46L1467.12,1188.43Z" style="stroke:black;stroke-width:1px;"/>
    <g id="レイヤー1">
    </g>
</svg>
