<?xml version="1.0" encoding="UTF-8" standalone="no"?>
<!DOCTYPE svg PUBLIC "-//W3C//DTD SVG 1.1//EN" "http://www.w3.org/Graphics/SVG/1.1/DTD/svg11.dtd">
<svg width="100%" height="100%" viewBox="0 0 2048 2048" version="1.1" xmlns="http://www.w3.org/2000/svg" xmlns:xlink="http://www.w3.org/1999/xlink" xml:space="preserve" xmlns:serif="http://www.serif.com/" style="fill-rule:evenodd;clip-rule:evenodd;stroke-linecap:round;stroke-linejoin:round;stroke-miterlimit:1.5;">
    <g id="レイヤー1">
        <path d="M1887.63,137.244C1887.63,137.244 1892.18,1386.7 1895.38,1686.75C1897.31,1867.66 1442.5,1984.85 1440.18,1982.38C1437.86,1979.91 627.24,1986.55 627.24,1986.55L1025.69,1672.8L1195.02,1786.53L1445.59,1791.05L1451.1,729.892L1255.9,863.91L1234.62,1400.12L808.526,1677.99L807.413,1407.96L618.494,1511.25L614.952,1669.45L190.507,1943.4L192.492,1331.63L234.967,1279.73L217.298,467.528L132.92,442.036L569.882,117.348L693.377,113.874L699.1,280.023L611.007,331.439L623.92,1331.04L809.157,1236.14L803.933,640.277L754.894,595.754L1232.95,247.881L1243.04,720.971L1439.6,593.399L1440.55,422.004L1887.63,137.244Z" style="stroke:black;stroke-width:1px;"/>
    </g>
</svg>
