<?xml version="1.0" encoding="UTF-8" standalone="no"?>
<!DOCTYPE svg PUBLIC "-//W3C//DTD SVG 1.1//EN" "http://www.w3.org/Graphics/SVG/1.1/DTD/svg11.dtd">
<svg width="100%" height="100%" viewBox="0 0 2048 2048" version="1.1" xmlns="http://www.w3.org/2000/svg" xmlns:xlink="http://www.w3.org/1999/xlink" xml:space="preserve" xmlns:serif="http://www.serif.com/" style="fill-rule:evenodd;clip-rule:evenodd;stroke-linecap:round;stroke-linejoin:round;stroke-miterlimit:1.5;">
    <g id="レイヤー1">
        <path d="M761.317,167.74L637.614,187.559L238.781,621.208L440.844,621.375L443.781,1722.17L326.406,1931.88C326.406,1931.88 1235.41,1936.87 1455.16,1934.94C1621.45,1933.48 1731.38,1821.22 1736.19,1662.39C1740.45,1521.72 1399.65,1062.63 1399.65,1062.63C1399.65,1062.63 1681.26,619.146 1687.57,505.188C1700.29,275.425 1186.38,185.402 1186.38,185.402L1095.39,523.332C1095.39,523.332 1382.27,630.435 1378.2,732.282C1374.14,834.13 1071.01,1134.42 1071.01,1134.42C1071.01,1134.42 1381.33,1503.14 1390.01,1617.8C1395.6,1691.49 1321.55,1700.03 1321.55,1700.03L758.908,1703.81L761.317,167.74Z" style="stroke:black;stroke-width:1px;"/>
    </g>
</svg>
