<?xml version="1.0" encoding="UTF-8" standalone="no"?>
<!DOCTYPE svg PUBLIC "-//W3C//DTD SVG 1.1//EN" "http://www.w3.org/Graphics/SVG/1.1/DTD/svg11.dtd">
<svg width="100%" height="100%" viewBox="0 0 2048 2048" version="1.1" xmlns="http://www.w3.org/2000/svg" xmlns:xlink="http://www.w3.org/1999/xlink" xml:space="preserve" xmlns:serif="http://www.serif.com/" style="fill-rule:evenodd;clip-rule:evenodd;stroke-linecap:round;stroke-linejoin:round;stroke-miterlimit:1.5;">
    <g id="レイヤー1">
        <path d="M1599.75,42.542L1576.16,1388.54L1899.55,1275.66L1217.44,1820.82L1226.87,687.306L745.813,900.125L756.516,1535.3C756.516,1535.3 791.742,1558.29 792.505,1574.93C793.798,1603.1 767.549,1634.62 767.549,1634.62C767.549,1634.62 375.954,1913.36 292.75,1962.96C281.504,1969.66 261.062,1943.1 268.323,1932.2C290.739,1898.57 427.244,1761.17 427.244,1761.17L406.331,897.409L1222.59,526.917L1224.01,451.94L283.783,453.99L628.281,178.667L749.3,323.58L1219.77,323.021L1599.75,42.542Z" style="stroke:black;stroke-width:1px;"/>
    </g>
</svg>
