<?xml version="1.0" encoding="UTF-8" standalone="no"?>
<!DOCTYPE svg PUBLIC "-//W3C//DTD SVG 1.1//EN" "http://www.w3.org/Graphics/SVG/1.1/DTD/svg11.dtd">
<svg width="100%" height="100%" viewBox="0 0 2048 2048" version="1.1" xmlns="http://www.w3.org/2000/svg" xmlns:xlink="http://www.w3.org/1999/xlink" xml:space="preserve" xmlns:serif="http://www.serif.com/" style="fill-rule:evenodd;clip-rule:evenodd;stroke-linecap:round;stroke-linejoin:round;stroke-miterlimit:1.5;">
    <g id="レイヤー1">
        <path d="M330.994,163.112L338.75,1898.17L1720.19,1892.04L1721.02,1707.86L657.807,1718.1L658.224,1411.23C658.224,1411.23 1231.89,1415.12 1436.18,1411.57C1555.76,1409.49 1710.48,1274.25 1739.23,1152.32C1769.71,1023.03 1809.95,947.492 1776.48,813.88C1738.61,662.684 1529.26,376.483 1427.45,327.24C1403.43,315.623 1405.01,180.823 1405.01,180.823L1036.81,416.288C1036.81,416.288 1386.46,732.53 1423.41,851.752C1452.93,946.967 1504.02,1055.09 1472.17,1121.76C1452.46,1163.02 1432.1,1222.56 1387.17,1227.37C1276.26,1239.26 928.178,1215.78 806.731,1193.1C747.809,1182.1 659.012,1171.86 658.49,1091.31C657.388,921.217 651.902,162.391 651.902,162.391L330.994,163.112Z" style="stroke:black;stroke-width:1px;"/>
    </g>
</svg>
