<?xml version="1.0" encoding="UTF-8" standalone="no"?>
<!DOCTYPE svg PUBLIC "-//W3C//DTD SVG 1.1//EN" "http://www.w3.org/Graphics/SVG/1.1/DTD/svg11.dtd">
<svg width="100%" height="100%" viewBox="0 0 2048 2048" version="1.1" xmlns="http://www.w3.org/2000/svg" xmlns:xlink="http://www.w3.org/1999/xlink" xml:space="preserve" xmlns:serif="http://www.serif.com/" style="fill-rule:evenodd;clip-rule:evenodd;stroke-linecap:round;stroke-linejoin:round;stroke-miterlimit:1.5;">
    <g id="レイヤー1">
        <path d="M1072.56,135.395C1749.73,122.238 1884.66,568.688 1878.4,1059.04C1871.44,1603.73 1536.03,1938.27 1022.81,1930.07C528.541,1922.16 237.203,1487.31 238.485,1051.52C239.932,559.776 478.38,146.939 1072.56,135.395ZM1475.77,1158.06C1475.77,1158.06 1485.65,1393.36 1481.33,1527.46C1477.17,1656.39 1280.33,1808.19 1056.18,1809.96C887.087,1811.29 668.493,1667.9 664.472,1542.96C659.973,1403.2 667.404,1162.49 667.404,1162.49L1475.77,1158.06ZM1075.79,243.665C1266.42,246.084 1474.93,432.188 1470.4,584.874C1466.98,699.987 1468.91,898.986 1468.91,898.986L660.294,904.02C660.294,904.02 659.824,662.769 660.294,580.268C661.105,437.834 883.111,241.22 1075.79,243.665Z" style="stroke:black;stroke-width:1px;"/>
    </g>
</svg>
