<?xml version="1.0" encoding="UTF-8" standalone="no"?>
<!DOCTYPE svg PUBLIC "-//W3C//DTD SVG 1.1//EN" "http://www.w3.org/Graphics/SVG/1.1/DTD/svg11.dtd">
<svg width="100%" height="100%" viewBox="0 0 2048 2048" version="1.1" xmlns="http://www.w3.org/2000/svg" xmlns:xlink="http://www.w3.org/1999/xlink" xml:space="preserve" xmlns:serif="http://www.serif.com/" style="fill-rule:evenodd;clip-rule:evenodd;stroke-linecap:round;stroke-linejoin:round;stroke-miterlimit:1.5;">
    <g id="レイヤー1">
        <path d="M725.82,86.225L346.875,320.667L340.219,393.583L428.156,396.042L438.562,1389.04L718.765,1386.74L1359.85,913.299L1355.42,1818.23L696.929,1817.22C696.929,1817.22 624.909,1753.89 631.531,1747.21L334.031,1956.29L1355.56,1960.04L1705.72,1745.92C1705.72,1745.92 1722.23,79.936 1721.81,77.417C1721.4,74.897 1450.99,263.956 1450.99,263.956L723.203,262.584L725.82,86.225ZM727.643,388.357L723.34,1177.25L1355.82,738.449L1357.97,386.117C1357.97,386.117 744.905,394.905 727.643,388.357L727.646,387.759C727.142,387.971 727.15,388.17 727.643,388.357Z" style="stroke:black;stroke-width:1px;"/>
    </g>
</svg>
