<?xml version="1.0" encoding="UTF-8" standalone="no"?>
<!DOCTYPE svg PUBLIC "-//W3C//DTD SVG 1.1//EN" "http://www.w3.org/Graphics/SVG/1.1/DTD/svg11.dtd">
<svg width="100%" height="100%" viewBox="0 0 2048 2048" version="1.1" xmlns="http://www.w3.org/2000/svg" xmlns:xlink="http://www.w3.org/1999/xlink" xml:space="preserve" xmlns:serif="http://www.serif.com/" style="fill-rule:evenodd;clip-rule:evenodd;stroke-linecap:round;stroke-linejoin:round;stroke-miterlimit:1.5;">
    <g id="レイヤー1">
        <path d="M586.813,70.875L291.281,280.125L289.187,323.417L405.753,347.806L398.597,2006.73L653.199,1878.01L672.23,349.046L1459.3,357.728C1459.3,357.728 1462.9,809.219 1442.31,982.954C1434.1,1052.19 1398.3,1179.16 1345.54,1265.72C1284.77,1365.42 1197.27,1404.36 1197.27,1404.36L1217.32,614.423L833.881,850.347L828.063,912L924.096,912.489L898.521,1808.96C898.521,1808.96 1377.5,1559.79 1492.76,1385.8C1568.37,1271.67 1720.23,1001.3 1725.97,887.793C1735.39,701.253 1747.03,139.125 1747.03,139.125L1620.88,221.333L697.531,218.417L586.813,70.875Z" style="stroke:black;stroke-width:1px;"/>
    </g>
</svg>
