<?xml version="1.0" encoding="UTF-8" standalone="no"?>
<!DOCTYPE svg PUBLIC "-//W3C//DTD SVG 1.1//EN" "http://www.w3.org/Graphics/SVG/1.1/DTD/svg11.dtd">
<svg width="100%" height="100%" viewBox="0 0 2048 2048" version="1.1" xmlns="http://www.w3.org/2000/svg" xmlns:xlink="http://www.w3.org/1999/xlink" xml:space="preserve" xmlns:serif="http://www.serif.com/" style="fill-rule:evenodd;clip-rule:evenodd;stroke-linecap:round;stroke-linejoin:round;stroke-miterlimit:1.5;">
    <g id="レイヤー1">
        <path d="M717.398,92.024L343.625,306.333L344.125,357.458L417.154,359.882L412.462,1887.33L386.062,2002.04L700.722,1836.55L712.927,391.955L1396.81,385.788L1399.78,1151L1715.97,950.25L1711.66,372.703L1734.39,196.186L1564.31,290.708L716.089,291.767L717.398,92.024Z" style="stroke:black;stroke-width:1px;"/>
        <path d="M1219.19,578.042L891.781,788.25L876.344,1957.92L970.061,1920.67C970.061,1920.67 1585.05,1918.92 1584.47,1919C1583.88,1919.08 1806.83,1784.58 1806.29,1781.27C1805.76,1777.96 1204.55,1773.64 1203.91,1773.92C1203.26,1774.2 1219.19,578.042 1219.19,578.042Z" style="stroke:black;stroke-width:1px;"/>
    </g>
</svg>
