<?xml version="1.0" encoding="UTF-8" standalone="no"?>
<!DOCTYPE svg PUBLIC "-//W3C//DTD SVG 1.1//EN" "http://www.w3.org/Graphics/SVG/1.1/DTD/svg11.dtd">
<svg width="100%" height="100%" viewBox="0 0 2048 2048" version="1.1" xmlns="http://www.w3.org/2000/svg" xmlns:xlink="http://www.w3.org/1999/xlink" xml:space="preserve" xmlns:serif="http://www.serif.com/" style="fill-rule:evenodd;clip-rule:evenodd;stroke-linecap:round;stroke-linejoin:round;stroke-miterlimit:1.5;">
    <g id="レイヤー1">
        <path d="M1829.42,24.373L1820.02,1859.01L1568.03,1862.05L1429.64,1607.71L1528.78,1483.38L1521.5,335.137L680.319,349.886L892.759,858.533C892.759,858.533 625.312,1217.68 631.574,1394.79C636.846,1543.87 763.05,1665.87 856.925,1665.68C1005.1,1665.38 1323.94,1669.49 1323.94,1669.49L1327.68,1932.44C1327.68,1932.44 890.244,1940.08 695.672,1937.11C499.795,1934.13 235.922,1663.41 237.217,1493.75C239.007,1259.29 492.501,993.623 492.501,993.623C492.501,993.623 222.202,592.458 211.658,440.39C201.115,288.323 320.279,84.763 460.236,82.271C648.283,78.921 1562.54,79.786 1562.54,79.786L1829.42,24.373Z" style="stroke:black;stroke-width:1px;"/>
    </g>
</svg>
