<?xml version="1.0" encoding="UTF-8" standalone="no"?>
<!DOCTYPE svg PUBLIC "-//W3C//DTD SVG 1.1//EN" "http://www.w3.org/Graphics/SVG/1.1/DTD/svg11.dtd">
<svg width="100%" height="100%" viewBox="0 0 2048 2048" version="1.1" xmlns="http://www.w3.org/2000/svg" xmlns:xlink="http://www.w3.org/1999/xlink" xml:space="preserve" xmlns:serif="http://www.serif.com/" style="fill-rule:evenodd;clip-rule:evenodd;stroke-linecap:round;stroke-linejoin:round;stroke-miterlimit:1.5;">
    <g id="レイヤー1">
        <path d="M1715.46,118.939C1715.46,118.939 1717.49,1428.47 1711.88,1730.3C1709.93,1834.93 1491.62,1954 1491.62,1954L1279.1,1957.87L1255.34,1840.24L341.661,1840.08L341.01,1615.56L669.738,1369.55C669.738,1369.55 448.434,1288.77 389.956,1149.55C333.627,1015.46 327.356,753.78 369.492,597.137C409.667,447.785 570.392,278.905 714.956,219.723C859.52,160.54 1242.95,146.884 1242.95,146.884C1242.95,146.884 805.558,364.452 726.19,504.061C656.85,626.031 686.525,885.027 723.873,982.826C755.337,1065.22 942.61,1186.51 942.61,1186.51L943.512,1456.56L673.399,1704.46L1317.06,1709.15L1316.75,313.731L1715.46,118.939Z" style="stroke:black;stroke-width:1px;"/>
    </g>
</svg>
