<?xml version="1.0" encoding="UTF-8" standalone="no"?>
<!DOCTYPE svg PUBLIC "-//W3C//DTD SVG 1.1//EN" "http://www.w3.org/Graphics/SVG/1.1/DTD/svg11.dtd">
<svg width="100%" height="100%" viewBox="0 0 2048 2048" version="1.1" xmlns="http://www.w3.org/2000/svg" xmlns:xlink="http://www.w3.org/1999/xlink" xml:space="preserve" xmlns:serif="http://www.serif.com/" style="fill-rule:evenodd;clip-rule:evenodd;stroke-linecap:round;stroke-linejoin:round;stroke-miterlimit:1.5;">
    <g id="レイヤー1">
        <path d="M334.614,592.284C328.449,754.389 314.062,1413.79 314.062,1413.79C314.062,1413.79 530.412,1212.38 577.177,1074.24C618.909,950.978 601.089,667.58 601.469,587.333C602.057,463.163 340.057,449.129 334.614,592.284Z" style="stroke:black;stroke-width:0.7px;"/>
        <path d="M793.125,402.208C793.125,402.208 816.502,1063.54 756.928,1299.16C707.211,1495.8 438.985,1681.19 435.683,1815.92C434.264,1873.82 429.625,1979.88 429.625,1979.88L1501.9,1982.13L1718.56,1798.33L1721.28,312.565L1545.28,313.958L1362.88,499.25L1355.1,1805.89L728.78,1804.24C728.78,1804.24 987.637,1499.42 1026.23,1311.48C1080.16,1048.8 1052.41,228.167 1052.41,228.167L793.125,402.208Z" style="stroke:black;stroke-width:0.7px;"/>
    </g>
</svg>
