<?xml version="1.0" encoding="UTF-8" standalone="no"?>
<!DOCTYPE svg PUBLIC "-//W3C//DTD SVG 1.1//EN" "http://www.w3.org/Graphics/SVG/1.1/DTD/svg11.dtd">
<svg width="100%" height="100%" viewBox="0 0 2048 2048" version="1.1" xmlns="http://www.w3.org/2000/svg" xmlns:xlink="http://www.w3.org/1999/xlink" xml:space="preserve" xmlns:serif="http://www.serif.com/" style="fill-rule:evenodd;clip-rule:evenodd;stroke-linecap:round;stroke-linejoin:round;stroke-miterlimit:1.5;">
    <g id="レイヤー1">
        <path d="M754.537,213.523C558.118,273.749 274.132,476.786 221.272,672.461C168.526,867.713 158.678,1228.34 208.669,1413.63C263.861,1618.2 540.455,1857.49 745.145,1900.9C964.93,1947.51 1187.6,1924.25 1369.52,1891.72C1558.48,1857.93 1779.67,1720.53 1831.96,1519.69C1886.24,1311.19 1901.68,898.746 1846.33,673.728C1792.38,454.414 1557.43,265.279 1363.99,210.222C1174.06,156.163 954.314,152.267 754.537,213.523ZM588.474,1162.15C588.474,1162.15 588.588,1353.87 591.02,1490.54C593.009,1602.36 737.622,1735.7 845.034,1785.92C955.511,1837.57 1138.42,1831.27 1244.57,1781.58C1350.72,1731.89 1464.08,1615.32 1470.66,1499.75C1476.93,1389.51 1473.68,1159.38 1473.68,1159.38L588.474,1162.15ZM841.719,293.952C728.128,333.247 586.309,461.918 578.657,584.863C570.376,717.903 576.738,941.441 576.738,941.441L1473.07,936.347C1473.07,936.347 1476.23,679.855 1474.85,569.386C1473.4,453.716 1357.43,328.817 1248.73,292.143C1140.96,255.784 958.367,253.601 841.719,293.952Z" style="stroke:black;stroke-width:1px;"/>
    </g>
</svg>
