<?xml version="1.0" encoding="UTF-8" standalone="no"?>
<!DOCTYPE svg PUBLIC "-//W3C//DTD SVG 1.1//EN" "http://www.w3.org/Graphics/SVG/1.1/DTD/svg11.dtd">
<svg width="100%" height="100%" viewBox="0 0 2048 2048" version="1.1" xmlns="http://www.w3.org/2000/svg" xmlns:xlink="http://www.w3.org/1999/xlink" xml:space="preserve" xmlns:serif="http://www.serif.com/" style="fill-rule:evenodd;clip-rule:evenodd;stroke-linecap:round;stroke-linejoin:round;stroke-miterlimit:1.5;">
    <g id="レイヤー1">
        <path d="M330.994,163.112L338.75,1898.17L1720.19,1892.04L1721.02,1707.86L605.747,1700.45L602.569,1423.07C602.569,1423.07 1231.89,1415.12 1436.18,1411.57C1555.76,1409.49 1710.48,1274.25 1739.23,1152.32C1769.71,1023.03 1760.58,889.082 1727.11,755.47C1689.24,604.274 1507.47,386.705 1405.66,337.462C1381.64,325.845 1388.7,237.526 1388.7,237.526L1088.82,374.365C1088.82,374.365 1446.64,708.006 1483.6,827.228C1513.11,922.443 1504.02,1055.09 1472.17,1121.76C1452.46,1163.02 1414.54,1200.87 1371.01,1205.54C1260.1,1217.43 935.568,1215.46 806.731,1193.1C727.371,1179.33 598.512,1151.92 597.99,1071.37C596.888,901.277 595.203,164.356 595.203,164.356L330.994,163.112Z" style="stroke:black;stroke-width:1px;"/>
    </g>
</svg>
