<?xml version="1.0" encoding="UTF-8" standalone="no"?>
<!DOCTYPE svg PUBLIC "-//W3C//DTD SVG 1.1//EN" "http://www.w3.org/Graphics/SVG/1.1/DTD/svg11.dtd">
<svg width="100%" height="100%" viewBox="0 0 2048 2048" version="1.1" xmlns="http://www.w3.org/2000/svg" xmlns:xlink="http://www.w3.org/1999/xlink" xml:space="preserve" xmlns:serif="http://www.serif.com/" style="fill-rule:evenodd;clip-rule:evenodd;stroke-linecap:round;stroke-linejoin:round;stroke-miterlimit:1.5;">
    <g id="レイヤー1" transform="matrix(1.28,0,0,1.28,0,0)">
        <path d="M337.247,463.841C337.247,463.841 398.914,243.274 491.834,198.472C617.239,138.006 1010.85,125.564 1138.49,176.334C1195.92,199.18 1315.9,229.349 1317.73,323.125C1321.89,536.798 1313.19,1039.17 1306.58,1224.62C1303.71,1305.31 1170.12,1483.75 1089.48,1487.89C971.497,1493.95 687.996,1504.2 543.032,1480.11C433.343,1461.88 338.027,1329.39 336.431,1218.21C334.936,1114.12 341.97,809.455 341.97,809.455L1121.96,801.711C1121.96,801.711 1123.32,535.188 1123.49,437.137C1123.6,372.545 1060.21,328.779 996.943,315.75C897.304,295.229 696.725,299.286 604.831,332.42C538.386,356.377 503.276,463.066 503.276,463.066L337.247,463.841ZM1107.62,1005.18C1107.62,1005.18 1107.15,1147.46 1100.3,1206C1093.16,1267.04 1056.01,1309.06 1000.15,1310.54C907.629,1312.99 752.055,1308.76 646.361,1306.55C580.083,1305.16 514.32,1265.16 512.677,1202.41C511.12,1142.93 513.688,1005.14 513.688,1005.14L1107.62,1005.18Z" style="stroke:black;stroke-width:1px;"/>
    </g>
</svg>
