<?xml version="1.0" encoding="UTF-8" standalone="no"?>
<!DOCTYPE svg PUBLIC "-//W3C//DTD SVG 1.1//EN" "http://www.w3.org/Graphics/SVG/1.1/DTD/svg11.dtd">
<svg width="100%" height="100%" viewBox="0 0 2048 2048" version="1.1" xmlns="http://www.w3.org/2000/svg" xmlns:xlink="http://www.w3.org/1999/xlink" xml:space="preserve" xmlns:serif="http://www.serif.com/" style="fill-rule:evenodd;clip-rule:evenodd;stroke-linecap:round;stroke-linejoin:round;stroke-miterlimit:1.5;">
    <g id="レイヤー1">
        <path d="M1455.3,298.493C1455.3,298.493 1333.84,451.978 1377.76,514.684C1409.01,559.293 1500.34,676.362 1608.86,821.183C1682.5,919.459 1681.79,1135.91 1632.62,1223.06C1589.25,1299.93 1433.48,1413.24 1334.57,1417.61C1183.89,1424.27 695.9,1418.87 695.9,1418.87L695.609,1646.19L1596.98,1649.06L1591.24,1809.22L330.353,1810.41L308.592,293.14L704.627,79.799L697.605,1199.26C697.605,1199.26 1272.29,1199.41 1359.87,1196.81C1541.15,1191.42 1136.77,765.065 1031.99,651.068C929.177,539.202 1455.3,298.493 1455.3,298.493Z" style="stroke:black;stroke-width:1px;"/>
    </g>
</svg>
