<?xml version="1.0" encoding="UTF-8" standalone="no"?>
<!DOCTYPE svg PUBLIC "-//W3C//DTD SVG 1.1//EN" "http://www.w3.org/Graphics/SVG/1.1/DTD/svg11.dtd">
<svg width="100%" height="100%" viewBox="0 0 2048 2048" version="1.1" xmlns="http://www.w3.org/2000/svg" xmlns:xlink="http://www.w3.org/1999/xlink" xml:space="preserve" xmlns:serif="http://www.serif.com/" style="fill-rule:evenodd;clip-rule:evenodd;stroke-linecap:round;stroke-linejoin:round;stroke-miterlimit:1.5;">
    <g id="レイヤー1">
        <path d="M1750.4,425.886L1743.94,1852.88L212.281,1871.29C212.281,1871.29 796.609,1342.01 797.172,1196.69C797.983,987.5 804.101,380.118 804.101,380.118L747.344,374.553L1082.78,97.334C1082.78,97.334 1082.04,962.957 1083.59,1197.08C1084.23,1293.16 654.18,1642.61 654.18,1642.61L1396.9,1641.01L1402.96,757.997L1301.75,759.583L1750.4,425.886Z" style="stroke:black;stroke-width:1px;"/>
        <path d="M578.579,582.692C578.579,582.692 583.963,946.118 515.244,1035.96C451.811,1118.89 202.597,1333.98 202.597,1333.98C202.597,1333.98 209.046,985.57 212.988,848.074C215.981,743.708 578.579,582.692 578.579,582.692Z" style="stroke:black;stroke-width:1px;"/>
    </g>
</svg>
