<?xml version="1.0" encoding="UTF-8" standalone="no"?>
<!DOCTYPE svg PUBLIC "-//W3C//DTD SVG 1.1//EN" "http://www.w3.org/Graphics/SVG/1.1/DTD/svg11.dtd">
<svg width="100%" height="100%" viewBox="0 0 2048 2048" version="1.1" xmlns="http://www.w3.org/2000/svg" xmlns:xlink="http://www.w3.org/1999/xlink" xml:space="preserve" xmlns:serif="http://www.serif.com/" style="fill-rule:evenodd;clip-rule:evenodd;stroke-linecap:round;stroke-linejoin:round;stroke-miterlimit:1.5;">
    <g id="レイヤー1">
        <path d="M1845.75,704.49C1850.07,1029.62 1840.64,1801.18 1840.64,1801.18L1438.32,2031.51L1435.54,1878.37L731.37,1883.6L867.052,1751.7L867.427,898.39L765.09,819.758L1170.95,578.668L1227.96,579.501L1217.94,1741.33L1441.61,1742.65C1441.61,1742.65 1442.13,880.43 1435.31,603.057C1430.99,426.954 1162.01,263.197 1023.15,272.293C884.292,281.39 597.36,449.238 594.955,632.311C591.991,857.928 593.302,1607.79 593.302,1607.79L142.531,1909.46C142.531,1909.46 154.914,1082.77 161.993,758.517C169.309,423.402 742.528,110.343 1023.15,101.338C1303.78,92.333 1841.57,390.151 1845.75,704.49Z" style="stroke:black;stroke-width:1px;"/>
    </g>
</svg>
