<?xml version="1.0" encoding="UTF-8" standalone="no"?>
<!DOCTYPE svg PUBLIC "-//W3C//DTD SVG 1.1//EN" "http://www.w3.org/Graphics/SVG/1.1/DTD/svg11.dtd">
<svg width="100%" height="100%" viewBox="0 0 2048 2048" version="1.1" xmlns="http://www.w3.org/2000/svg" xmlns:xlink="http://www.w3.org/1999/xlink" xml:space="preserve" xmlns:serif="http://www.serif.com/" style="fill-rule:evenodd;clip-rule:evenodd;stroke-linecap:round;stroke-linejoin:round;stroke-miterlimit:1.5;">
    <g id="レイヤー1" transform="matrix(1.10036,0,0,1.10036,-30.4262,-7.91747)">
        <path d="M1091.96,85.543C1079.24,60.912 784.755,187.834 711.897,239.069C576.134,334.538 410.774,554.712 348.344,747.875C294.932,913.136 288.347,1080.96 331.437,1251.12C374.005,1419.22 624.684,1644.08 758,1704.25C863.844,1752.02 1017.03,1737.82 1096.29,1710.22C1160.81,1687.75 1260.32,1668.41 1261.61,1605.36C1264.87,1445.61 1261.29,659.031 1261.29,659.031L1342.06,516.649L1423.95,603.886L1418.16,1738.42L1600.56,1736.43L1600.38,425.167L1346.62,429.083L1214.86,582.956L1059.34,649.954L1053.08,1386.94C1053.08,1386.94 728.526,1347.08 656.225,1223.66C580.109,1093.71 536.387,771.207 596.38,607.293C654.88,447.458 701.391,390.395 847.011,267.314C953.183,177.574 1108.25,117.078 1091.96,85.543Z" style="stroke:black;stroke-width:0.91px;"/>
    </g>
</svg>
