<?xml version="1.0" encoding="UTF-8" standalone="no"?>
<!DOCTYPE svg PUBLIC "-//W3C//DTD SVG 1.1//EN" "http://www.w3.org/Graphics/SVG/1.1/DTD/svg11.dtd">
<svg width="100%" height="100%" viewBox="0 0 2048 2048" version="1.1" xmlns="http://www.w3.org/2000/svg" xmlns:xlink="http://www.w3.org/1999/xlink" xml:space="preserve" xmlns:serif="http://www.serif.com/" style="fill-rule:evenodd;clip-rule:evenodd;stroke-linecap:round;stroke-linejoin:round;stroke-miterlimit:1.5;">
    <g id="レイヤー1">
        <path d="M1737.62,75.364C1737.62,75.364 1248.64,91.187 1066.53,231.083C841.408,404.023 508.367,905.979 386.883,1113C325.548,1217.52 337.625,1473.21 337.625,1473.21L688.136,1385.91C688.136,1385.91 995.809,596.626 1125.36,465.577C1181.75,408.537 1336.86,382.638 1336.86,382.638L1195.67,1314.1L1443.57,1260.82C1443.57,1260.82 1415.99,1736.62 1338.32,1777.98C1274.22,1812.12 582.75,1778.83 582.75,1778.83L561.469,1653.46L283,1919.33L1437.19,1917.54C1437.19,1917.54 1632.53,1864.01 1674.26,1764.21C1724.05,1645.16 1735.89,1203.26 1735.89,1203.26L1845.96,1172.34L1844.88,985.083L1576.67,1027.42L1595.43,338.323L1735.9,310.998L1737.62,75.364Z" style="stroke:black;stroke-width:1px;"/>
    </g>
</svg>
