<?xml version="1.0" encoding="UTF-8" standalone="no"?>
<!DOCTYPE svg PUBLIC "-//W3C//DTD SVG 1.1//EN" "http://www.w3.org/Graphics/SVG/1.1/DTD/svg11.dtd">
<svg width="100%" height="100%" viewBox="0 0 2048 2048" version="1.1" xmlns="http://www.w3.org/2000/svg" xmlns:xlink="http://www.w3.org/1999/xlink" xml:space="preserve" xmlns:serif="http://www.serif.com/" style="fill-rule:evenodd;clip-rule:evenodd;stroke-linecap:round;stroke-linejoin:round;stroke-miterlimit:1.5;">
    <g id="レイヤー1">
        <path d="M1560.29,814.059L1566.08,285.378L1615.66,198.708L1644.62,57.019C1644.62,57.019 1439.96,48.134 1384.44,63.096C1348.72,72.725 1311.54,146.792 1311.54,146.792L668.172,160.132L644.466,54.847C644.466,54.847 471.255,50.954 407.288,67.552C352.3,81.82 260.668,154.433 260.668,154.433L254.643,351.329L696.37,896.764L404.567,1120.83L399.838,1891.26L1392.84,1891.12L1710.94,1161.08L1305.88,1643.7L703.748,1642.48L705.439,1120.12L773.467,897.61L715.112,385.576L1319.46,382.165L1311.17,818.846L1560.29,814.059Z" style="stroke:black;stroke-width:1px;"/>
    </g>
</svg>
